<svg fill="#FFF" xmlns="http://www.w3.org/2000/svg" width="64" height="64"><path d="m28.291 6-1.885 5.76a20.932 20.932 0 0 0-7.685 3.976l1.338-2.908-2.352-1.28a2 2 0 0 0-2.37.345l-4.345 4.343 2.746 5.418a20.845 20.845 0 0 0-2.63 8.227L10 26.887l-2.566.76A2 2 0 0 0 6 29.563v6.145l5.76 1.885a20.932 20.932 0 0 0 3.976 7.685l-2.908-1.338-1.28 2.352a2 2 0 0 0 .345 2.37l4.343 4.345 5.418-2.746a20.845 20.845 0 0 0 8.227 2.63L26.887 54l.76 2.566A2 2 0 0 0 29.563 58h6.145l1.885-5.76a20.932 20.932 0 0 0 7.685-3.976l-1.338 2.908 2.352 1.28a2 2 0 0 0 2.37-.345l4.345-4.343-2.746-5.418a20.845 20.845 0 0 0 2.63-8.227L54 37.113l2.566-.76A2 2 0 0 0 58 34.437V28.29l-5.76-1.885a20.932 20.932 0 0 0-3.976-7.685l2.908 1.338 1.28-2.352a2 2 0 0 0-.345-2.37l-4.343-4.345-5.418 2.746a20.845 20.845 0 0 0-8.227-2.63L37.113 10l-.76-2.566A2 2 0 0 0 34.437 6H28.29zM32 16c8.837 0 16 7.163 16 16 0 8.836-7.163 16-16 16s-16-7.164-16-16c0-8.837 7.163-16 16-16zm0 4c-6.627 0-12 5.373-12 12s5.373 12 12 12 12-5.373 12-12-5.373-12-12-12zm0 8a4 4 0 1 1 0 8 4 4 0 0 1 0-8z"/></svg>